<?xml version="1.0" standalone="no"?>
<!DOCTYPE svg PUBLIC "-//W3C//DTD SVG 20010904//EN"
 "http://www.w3.org/TR/2001/REC-SVG-20010904/DTD/svg10.dtd">
<svg version="1.0" xmlns="http://www.w3.org/2000/svg"
 width="401.000000pt" height="312.000000pt" viewBox="0 0 401.000000 312.000000"
 preserveAspectRatio="xMidYMid meet">

<g transform="translate(0.000000,312.000000) scale(0.100000,-0.100000)"
fill="#000000" stroke="none">
<path d="M334 2876 c-3 -8 -1 -23 4 -33 15 -28 44 -113 55 -163 7 -29 13 -465
16 -1210 l6 -1165 600 -3 c402 -2 625 1 675 8 283 42 483 194 557 423 45 137
26 332 -46 475 -37 73 -110 172 -169 230 -154 150 -403 279 -649 338 -40 9
-81 22 -90 30 -17 11 -16 13 7 17 14 3 86 18 160 32 414 83 607 193 665 380
19 63 20 202 1 283 -30 130 -116 237 -240 297 -138 68 -138 68 -879 72 -583 4
-668 2 -673 -11z m1228 -95 c84 -27 170 -117 208 -218 28 -73 31 -202 7 -283
-52 -174 -215 -315 -461 -396 -126 -42 -156 -58 -156 -85 0 -17 66 -59 93 -59
26 0 191 -79 262 -125 77 -50 187 -153 240 -225 115 -155 179 -389 155 -561
-18 -129 -51 -210 -119 -296 -49 -63 -109 -105 -198 -141 l-68 -27 -375 0
-375 0 0 1160 c0 1140 0 1161 20 1200 16 33 29 43 70 57 44 16 86 17 355 15
205 -2 317 -7 342 -16z"/>
<path d="M2626 2868 c-8 -13 -44 -104 -80 -203 -37 -99 -73 -196 -81 -215 -7
-19 -44 -116 -80 -215 -36 -99 -71 -191 -77 -205 -5 -14 -27 -72 -48 -130 -22
-58 -59 -159 -84 -225 -25 -66 -46 -124 -46 -128 0 -4 34 -47 75 -95 55 -63
89 -116 126 -192 59 -121 52 -110 103 -186 242 -368 590 -682 858 -775 106
-36 174 -44 251 -29 148 29 247 124 282 271 35 152 8 303 -100 544 -42 93 -62
140 -155 350 -10 22 -29 67 -43 100 -14 33 -39 89 -55 125 -16 36 -46 103 -67
150 -20 47 -53 121 -72 165 -20 44 -43 98 -53 120 -10 22 -57 130 -105 240
-119 271 -125 290 -132 425 -3 66 -11 118 -17 122 -6 4 -95 8 -198 8 -184 0
-188 0 -202 -22z m349 -323 c14 -31 25 -57 25 -60 0 -2 13 -32 29 -67 16 -35
50 -112 76 -173 26 -60 55 -128 65 -150 10 -22 45 -103 78 -180 138 -321 204
-472 217 -500 38 -85 190 -437 206 -480 48 -126 60 -267 34 -369 -63 -241
-307 -273 -611 -80 -163 103 -390 314 -550 513 -114 141 -138 182 -125 212 6
13 60 159 121 324 61 165 127 341 145 390 91 244 223 603 230 625 7 24 23 50
31 50 2 0 15 -25 29 -55z"/>
</g>
</svg>
